# 3ds Max Wavefront OBJ Exporter v0.97b - (c)2007 guruware
# File Created: 15.09.2014 01:03:04

mtllib star.mtl

#
# object star
#

v  0.0000 3340.7205 706.7992
v  -606.9016 3045.1143 719.8543
v  0.0000 2209.7874 907.2166
v  606.9016 3045.1143 719.8543
v  896.0984 2500.9448 746.9764
v  981.9843 1890.7205 720.3425
v  553.8189 1447.5197 757.4489
v  0.0000 1177.2638 706.5472
v  -553.8189 1447.5197 757.4489
v  -981.9843 1890.7205 720.3425
v  -896.0984 2500.9448 746.9764
v  0.0000 4857.6377 -0.0000
v  -833.1653 3356.5396 -0.0000
v  -816.5236 3281.5786 343.9673
v  -2518.2678 3028.0195 -0.0000
v  -1321.1653 1795.2007 345.8972
v  -1398.9764 1771.6654 -0.0000
v  -1556.3739 67.6197 -0.0000
v  0.0000 857.8110 363.5910
v  0.0000 765.0669 -0.0000
v  0.0000 857.8110 -363.5910
v  0.0000 1177.2638 -706.5472
v  1556.3739 67.6197 -0.0000
v  553.8189 1447.5197 -757.4489
v  0.0000 2209.7874 -907.2166
v  -553.8189 1447.5197 -757.4489
v  -981.9843 1890.7205 -720.3425
v  -1321.1653 1795.2007 -345.8972
v  -896.0984 2500.9448 -746.9764
v  0.0000 3340.7205 -706.7992
v  -606.9016 3045.1143 -719.8543
v  -816.5236 3281.5786 -343.9673
v  606.9016 3045.1143 -719.8543
v  816.5236 3281.5786 -343.9673
v  833.1653 3356.5396 -0.0000
v  816.5236 3281.5786 343.9673
v  2518.2678 3028.0195 -0.0000
v  1321.1653 1795.2007 345.8972
v  1398.9764 1771.6654 -0.0000
v  981.9843 1890.7205 -720.3425
v  1321.1653 1795.2007 -345.8972
v  896.0984 2500.9448 -746.9764
# 42 vertices

vn -0.0000 0.3347 0.9423
vn -0.2646 0.3465 0.9000
vn -0.0000 0.0024 1.0000
vn 0.2646 0.3465 0.9000
vn 0.2832 0.0924 0.9546
vn 0.4064 -0.1259 0.9050
vn 0.1650 -0.2450 0.9554
vn 0.0000 -0.4373 0.8993
vn -0.1650 -0.2450 0.9554
vn -0.4064 -0.1259 0.9050
vn -0.2832 0.0924 0.9546
vn -0.0000 1.0000 -0.0000
vn -0.6081 0.7939 0.0000
vn -0.4942 0.7178 0.4905
vn -0.9481 0.3179 0.0000
vn -0.8037 -0.2668 0.5319
vn -0.9494 -0.3140 0.0000
vn -0.5820 -0.8132 0.0000
vn 0.0000 -0.8430 0.5378
vn 0.0000 -1.0000 -0.0000
vn -0.0000 -0.8430 -0.5378
vn -0.0000 -0.4373 -0.8993
vn 0.5820 -0.8132 0.0000
vn 0.1650 -0.2450 -0.9554
vn 0.0000 0.0024 -1.0000
vn -0.1650 -0.2450 -0.9554
vn -0.4064 -0.1259 -0.9050
vn -0.8037 -0.2668 -0.5319
vn -0.2832 0.0924 -0.9546
vn 0.0000 0.3347 -0.9423
vn -0.2646 0.3465 -0.9000
vn -0.4942 0.7178 -0.4905
vn 0.2646 0.3465 -0.9000
vn 0.4942 0.7178 -0.4905
vn 0.6081 0.7939 -0.0000
vn 0.4942 0.7178 0.4905
vn 0.9481 0.3179 -0.0000
vn 0.8037 -0.2668 0.5319
vn 0.9494 -0.3140 -0.0000
vn 0.4064 -0.1259 -0.9050
vn 0.8037 -0.2668 -0.5319
vn 0.2832 0.0924 -0.9546
# 42 vertex normals

vt 0.1466 1.0216 0.0000
vt 0.5165 0.8648 0.0000
vt 0.1466 0.4217 0.0000
vt 0.5174 0.8648 0.0000
vt 0.6936 0.5762 0.0000
vt 0.7460 0.2525 0.0000
vt 0.4850 0.0174 0.0000
vt 0.1466 -0.1260 0.0000
vt 0.4841 0.0174 0.0000
vt 0.7452 0.2525 0.0000
vt 0.6928 0.5762 0.0000
vt 0.7503 0.8968 0.0000
vt 0.7920 0.8222 0.0000
vt 0.7911 0.8185 0.0000
vt 0.7807 0.8067 0.0000
vt 0.8762 0.8059 0.0000
vt 0.7951 0.7797 0.0000
vt 0.7994 0.7493 0.0000
vt 0.8164 0.7446 0.0000
vt 0.8202 0.7434 0.0000
vt 0.8281 0.6587 0.0000
vt 0.7780 0.7273 0.0000
vt 0.7503 0.7139 0.0000
vt 0.7503 0.6980 0.0000
vt 0.7503 0.6934 0.0000
vt 0.6725 0.6587 0.0000
vt 0.7226 0.7273 0.0000
vt 0.7503 0.7652 0.0000
vt 0.7503 0.8214 0.0000
vt 0.7200 0.8067 0.0000
vt 0.7095 0.8185 0.0000
vt 0.7087 0.8222 0.0000
vt 0.6245 0.8059 0.0000
vt 0.7055 0.7797 0.0000
vt 0.7012 0.7493 0.0000
vt 0.6843 0.7446 0.0000
vt 0.6804 0.7434 0.0000
# 37 texture coords

g SOBJ_0xd84
usemtl star
s 1
f 1/1/1 2/2/2 3/3/3 
f 1/1/1 3/3/3 4/4/4 
f 3/3/3 5/5/5 4/4/4 
f 6/6/6 5/5/5 3/3/3 
f 6/6/6 3/3/3 7/7/7 
f 8/8/8 7/7/7 3/3/3 
f 8/8/8 3/3/3 9/9/9 
f 10/10/10 9/9/9 3/3/3 
f 10/10/10 3/3/3 11/11/11 
f 3/3/3 2/2/2 11/11/11 
f 12/12/12 13/13/13 14/14/14 
f 14/14/14 2/15/2 12/12/12 
f 2/15/2 14/14/14 15/16/15 
f 15/16/15 11/17/11 2/15/2 
f 10/18/10 11/17/11 15/16/15 
f 15/16/15 16/19/16 10/18/10 
f 16/19/16 15/16/15 17/20/17 
f 18/21/18 16/19/16 17/20/17 
f 10/18/10 16/19/16 18/21/18 
f 18/21/18 9/22/9 10/18/10 
f 8/23/8 9/22/9 18/21/18 
f 18/21/18 19/24/19 8/23/8 
f 18/21/18 20/25/20 19/24/19 
f 18/21/18 21/24/21 20/25/20 
f 21/24/21 18/21/18 22/23/22 
f 23/26/23 21/24/21 22/23/22 
f 22/23/22 24/27/24 23/26/23 
f 22/23/22 25/28/25 24/27/24 
f 22/23/22 26/22/26 25/28/25 
f 22/23/22 18/21/18 26/22/26 
f 18/21/18 27/18/27 26/22/26 
f 27/18/27 18/21/18 28/19/28 
f 15/16/15 27/18/27 28/19/28 
f 27/18/27 15/16/15 29/17/29 
f 27/18/27 29/17/29 25/28/25 
f 27/18/27 25/28/25 26/22/26 
f 30/29/30 25/28/25 31/15/31 
f 12/12/12 30/29/30 31/15/31 
f 32/14/32 12/12/12 31/15/31 
f 12/12/12 32/14/32 13/13/13 
f 15/16/15 13/13/13 32/14/32 
f 15/16/15 14/14/14 13/13/13 
f 31/15/31 15/16/15 32/14/32 
f 15/16/15 31/15/31 29/17/29 
f 25/28/25 29/17/29 31/15/31 
f 30/29/30 33/30/33 25/28/25 
f 12/12/12 33/30/33 30/29/30 
f 34/31/34 33/30/33 12/12/12 
f 12/12/12 35/32/35 34/31/34 
f 12/12/12 36/31/36 35/32/35 
f 36/31/36 12/12/12 4/30/4 
f 4/30/4 37/33/37 36/31/36 
f 37/33/37 4/30/4 5/34/5 
f 6/35/6 37/33/37 5/34/5 
f 37/33/37 6/35/6 38/36/38 
f 38/36/38 39/37/39 37/33/37 
f 23/26/23 39/37/39 38/36/38 
f 6/35/6 23/26/23 38/36/38 
f 23/26/23 6/35/6 7/27/7 
f 8/23/8 23/26/23 7/27/7 
f 19/24/19 23/26/23 8/23/8 
f 23/26/23 19/24/19 20/25/20 
f 23/26/23 20/25/20 21/24/21 
f 40/35/40 41/36/41 23/26/23 
f 37/33/37 41/36/41 40/35/40 
f 40/35/40 42/34/42 37/33/37 
f 40/35/40 25/28/25 42/34/42 
f 40/35/40 24/27/24 25/28/25 
f 23/26/23 24/27/24 40/35/40 
f 23/26/23 41/36/41 39/37/39 
f 37/33/37 39/37/39 41/36/41 
f 37/33/37 35/32/35 36/31/36 
f 37/33/37 34/31/34 35/32/35 
f 33/30/33 34/31/34 37/33/37 
f 37/33/37 42/34/42 33/30/33 
f 25/28/25 33/30/33 42/34/42 
f 12/12/12 2/15/2 1/29/1 
f 12/12/12 1/29/1 4/30/4 
f 18/21/18 17/20/17 28/19/28 
f 15/16/15 28/19/28 17/20/17 
# 0 polygons - 80 triangles

